PathFileType	4	(X/Y/Z)	c:\Git\1_current_projects\powerlifing_model\simulations\Athlete_03\22_07_06\dl_70_test\markers_experimental.trc
DataRate	CameraRate	NumFrames	NumMarkers	Units	OrigDataRate	OrigDataStartFrame	OrigNumFrames
200.000000	200.000000	4	59	mm	200.000000	1405	2810
Frame#	Time	BL			BR			GLAB			RFHD			LFHD			C7			T6			SPINMOL			SPINM2			SPINM3			BELTOL			BELT2			BELT3			SACROL			SACR2			SACR3			LTHOL			LTH2			LTH3			LSHAOL			LSHA2			LSHA3			LHEE			LTOE			LM5			RTHOL			RTH2			RTH3			RSHAOL			RSHA2			RSHA3			RHEE			RTOE			RM5			STRN			XIPH			LACR			LUAOL			LUA2			LUA3			LLAOL			LLA2			LLA3			LWRU			RACR			RUAOL			RUA2			RUA3			RLAOL			RLA2			RLA3			RWRU			T12			USERMO0			USERMO1			USERMO2			USERMO3			USERMO4			USERMO5			
		X1	Y1	Z1	X2	Y2	Z2	X3	Y3	Z3	X4	Y4	Z4	X5	Y5	Z5	X6	Y6	Z6	X7	Y7	Z7	X8	Y8	Z8	X9	Y9	Z9	X10	Y10	Z10	X11	Y11	Z11	X12	Y12	Z12	X13	Y13	Z13	X14	Y14	Z14	X15	Y15	Z15	X16	Y16	Z16	X17	Y17	Z17	X18	Y18	Z18	X19	Y19	Z19	X20	Y20	Z20	X21	Y21	Z21	X22	Y22	Z22	X23	Y23	Z23	X24	Y24	Z24	X25	Y25	Z25	X26	Y26	Z26	X27	Y27	Z27	X28	Y28	Z28	X29	Y29	Z29	X30	Y30	Z30	X31	Y31	Z31	X32	Y32	Z32	X33	Y33	Z33	X34	Y34	Z34	X35	Y35	Z35	X36	Y36	Z36	X37	Y37	Z37	X38	Y38	Z38	X39	Y39	Z39	X40	Y40	Z40	X41	Y41	Z41	X42	Y42	Z42	X43	Y43	Z43	X44	Y44	Z44	X45	Y45	Z45	X46	Y46	Z46	X47	Y47	Z47	X48	Y48	Z48	X49	Y49	Z49	X50	Y50	Z50	X51	Y51	Z51	X52	Y52	Z52	X53	Y53	Z53	X54	Y54	Z54	X55	Y55	Z55	X56	Y56	Z56	X57	Y57	Z57	X58	Y58	Z58	X59	Y59	Z59	

1406	7.025	194.4398956298829	248.7761535644532	-2317.318115234375	230.2050018310547	251.6364440917969	-94.23865509033205	627.7749023437501	825.2070922851565	-1194.094482421875	615.0407104492189	887.6109619140627	-1117.767578125	610.2718505859376	882.687683105469	-1273.686157226563	455.7483215332032	1006.188903808594	-1192.7060546875	265.0331420898438	1058.478149414063	-1202.379150390625	227.3456420898438	1067.563598632813	-1204.51513671875	166.1051940917969	1066.335693359375	-1153.024291992188	165.2367706298828	1066.037963867188	-1202.96923828125	75.57858276367189	1078.341918945313	-1206.70703125	16.74569129943848	1066.475830078125	-1153.902099609375	13.74860858917237	1071.586669921875	-1203.716674804688	-97.80274200439456	1001.770568847656	-1226.889038085938	-87.37368774414064	1004.524230957031	-1177.004272460938	-146.2444915771485	977.5454101562502	-1188.56298828125	8.094738006591799	733.2106933593751	-1433.914916992188	-10.99359798431397	655.7972412109376	-1424.595703125	34.51858520507813	677.2491455078126	-1430.359985351563	85.49380493164064	346.8706054687501	-1431.500610351563	47.68685913085938	278.2525329589844	-1422.983276367188	96.61631011962893	286.0604248046876	-1425.309448242188	26.23956680297852	65.01547241210939	-1338.360229492188	236.8858795166016	73.37328338623048	-1341.571166992188	193.8508453369141	56.48136520385744	-1447.081909179688	7.295688152313234	700.3987426757814	-974.3878173828127	77.51939392089845	662.4145507812501	-971.011169433594	31.33823585510255	642.9055175781251	-974.1431274414065	65.20317840576173	341.4311828613282	-970.4071044921877	109.6433715820313	275.5805053710938	-970.7214355468752	60.57991027832033	280.9959411621094	-980.1500244140627	26.81164169311524	63.05085754394533	-1066.832153320313	237.6628723144532	67.63060760498048	-1053.963256835938	195.1758575439454	67.82816314697267	-955.278991699219	445.3191223144532	826.0734863281252	-1194.732788085938	287.2658386230469	775.8084716796877	-1175.875244140625	439.5304260253907	874.8648071289065	-1391.7158203125	383.7148742675782	749.8162231445314	-1455.051635742188	343.3339538574219	703.5934448242189	-1481.75244140625	378.3088378906251	684.3064575195314	-1449.61474609375	310.3360900878907	474.6384887695314	-1451.302001953125	278.4134826660157	419.136688232422	-1466.265258789063	302.0381774902344	417.3179626464845	-1422.141845703125	263.6789245605469	328.3695678710938	-1441.96484375	446.9842224121095	860.046081542969	-1018.603271484375	385.272430419922	701.5114746093751	-979.776306152344	370.3691711425782	645.7666625976564	-1010.2431640625	364.4651184082032	641.7431640625001	-960.6362915039065	311.3990173339844	455.1502685546876	-960.8435058593752	297.7981262207032	400.1313476562501	-992.0750122070315	289.3528747558594	397.6414489746095	-941.4876098632815	263.8495788574219	325.2548217773438	-937.8679809570315	106.0217361450196	1055.4462890625	-1205.578247070313	0.01950649917125702	0.008810239844024183	-0.04460979998111726	0.01115259993821383	0.02610800042748452	-0.01058739982545376	0.0101282000541687	0.02844169922173024	-0.01045200042426586	0.03872190043330193	0.1950950026512147	-0.7991150021553042	0.3415150046348572	2.91353988647461	-0.3214069902896882	2.776390075683594	0	0	
1407	7.03	194.4893035888672	248.764633178711	-2317.34716796875	230.2481384277344	251.6179809570313	-94.24414062500001	627.9307250976564	826.8630981445315	-1194.280517578125	614.9706420898439	889.1884765625002	-1117.923217773438	610.0734252929689	884.321960449219	-1273.819213867188	454.7292480468751	1006.863342285156	-1192.616943359375	263.6578369140626	1057.89599609375	-1202.119384765625	225.9508514404297	1066.684326171875	-1204.243530273438	164.7506103515625	1065.063842773438	-1152.719360351563	163.8514556884766	1064.75537109375	-1202.665283203125	74.64024353027345	1076.641845703125	-1206.3564453125	15.85799503326416	1064.54638671875	-1153.550537109375	12.83294105529786	1069.693481445313	-1203.358154296875	-98.54304504394534	999.688171386719	-1226.581909179688	-88.1083450317383	1002.423095703125	-1176.692138671875	-146.9161987304688	975.307800292969	-1188.247314453125	9.016077041625978	732.2622680664064	-1433.588623046875	-9.567901611328127	654.7085571289064	-1424.59814453125	35.81897735595704	676.4884033203126	-1430.105590820313	87.33989715576173	346.7603454589844	-1431.620239257813	49.10960769653322	278.3637695312501	-1423.232177734375	98.0961608886719	285.8920898437501	-1425.340942382813	26.25336456298829	65.06554412841798	-1338.347900390625	236.900131225586	73.34320068359376	-1341.52392578125	193.8604125976563	56.50374221801759	-1447.059814453125	8.546240806579592	699.3120727539064	-974.3569335937502	79.1211395263672	661.9907836914064	-970.9667968750002	33.11771774291993	642.0477905273439	-973.9893798828127	67.18437957763673	341.4046020507813	-970.0979003906252	111.1915130615235	275.2747192382813	-970.6792602539065	62.11900711059572	281.0189819335938	-979.8963623046877	26.82734107971192	63.0831985473633	-1066.834716796875	237.6856079101563	67.61992645263673	-1053.999267578125	195.1849822998047	67.84122467041017	-955.3084106445315	444.7123107910157	826.770446777344	-1194.857666015625	287.1778564453126	775.3767700195315	-1176.068359375	438.8591918945314	875.5784301757815	-1391.849243164063	382.9828491210938	750.3079223632814	-1455.115356445313	342.5889282226563	704.0490722656251	-1481.729736328125	377.6671447753907	684.7925415039064	-1449.687744140625	310.0061950683594	475.0261230468751	-1451.326171875	278.1259765625001	419.493133544922	-1466.222045898438	301.8645629882813	417.7034912109376	-1422.16552734375	263.5829467773438	328.6992187500001	-1441.915283203125	446.6629943847657	860.6234130859377	-1018.357849121094	384.9548339843751	701.8142700195314	-979.6946411132815	370.1301879882813	646.0824584960939	-1010.16748046875	364.1585998535157	642.0456542968751	-960.5826416015627	311.1874694824219	455.4575500488282	-960.8665771484377	297.6719055175782	400.4313354492189	-992.1116333007815	289.1835327148438	397.9271545410157	-941.5421142578127	263.7079772949219	325.5235900878907	-937.9282226562502	104.9127044677735	1053.852294921875	-1205.276611328125	0.01927649974822998	0.008958259597420694	-0.04554799944162369	0.01151620037853718	0.02602620050311089	-0.01091909967362881	0.009902619756758215	0.02830339968204499	-0.01096899993717671	0.03832890093326569	0.1938820034265519	-0.7992119789123537	0.341598004102707	2.912329912185669	-0.3206979930400849	2.767390012741089	0	0	
1408	7.035	194.5377807617188	248.7508544921876	-2317.372802734375	230.2915954589844	251.5989532470704	-94.24935913085939	628.0756225585939	828.5706176757815	-1194.45751953125	614.8798217773439	890.8127441406252	-1118.071044921875	609.8591918945314	886.007507324219	-1273.945922851563	453.670135498047	1007.550170898438	-1192.52392578125	262.2366638183594	1057.29638671875	-1201.851318359375	224.5144653320313	1065.778686523438	-1203.966064453125	163.3598327636719	1063.755981445313	-1152.404052734375	162.4279327392578	1063.439575195313	-1202.351196289063	73.68000793457033	1074.897583007813	-1205.99169921875	14.95414733886719	1062.561279296875	-1153.181640625	11.89704036712647	1067.746948242188	-1202.9814453125	-99.29530334472659	997.5371093750002	-1226.253540039063	-88.85340881347658	1000.254699707031	-1176.359008789063	-147.5958099365235	972.996520996094	-1187.906860351563	9.925192832946779	731.2538452148439	-1433.251831054688	-8.145394325256349	653.5646972656251	-1424.580444335938	37.10984039306641	675.6736450195314	-1429.84521484375	89.19181060791017	346.6323852539063	-1431.724243164063	50.53548049926759	278.4628906250001	-1423.464721679688	99.57792663574222	285.7076416015626	-1425.359375	26.26672744750977	65.11081695556642	-1338.331298828125	236.9130249023438	73.3130569458008	-1341.473876953125	193.8700408935547	56.52810668945314	-1447.035278320313	9.814250946044924	698.1744995117189	-974.3363037109377	80.73675537109376	661.5237426757814	-970.9270629882815	34.91572189331055	641.1459960937501	-973.8399047851565	69.18774414062501	341.3632812500001	-969.795349121094	112.7518081665039	274.9522094726563	-970.6418457031252	63.67380523681642	281.0301818847657	-979.6472778320315	26.84178924560548	63.11315155029298	-1066.836303710938	237.7090148925782	67.61018371582033	-1054.037109375	195.1940612792969	67.85372924804689	-955.3382568359377	444.0657653808595	827.4827880859377	-1194.985107421875	287.0697021484376	774.9356689453127	-1176.284057617188	438.148162841797	876.3074340820315	-1391.985107421875	382.2039489746094	750.8154296875001	-1455.184936523438	341.7972412109376	704.5191650390626	-1481.708618164063	376.9882202148438	685.2947387695314	-1449.771728515625	309.6697387695313	475.4194946289064	-1451.3427734375	277.8385620117188	419.8533325195314	-1466.173950195313	301.6871032714844	418.0943908691407	-1422.181884765625	263.4908142089844	329.0321960449219	-1441.862060546875	446.3170776367189	861.209167480469	-1018.10791015625	384.624969482422	702.1242675781251	-979.6024169921877	369.8860778808594	646.4016113281251	-1010.082336425781	363.8387451171876	642.3518676757814	-960.518493652344	310.9731140136719	455.7632141113282	-960.8848876953127	297.5414123535157	400.7315063476564	-992.1473388671877	289.0132446289063	398.2099609375001	-941.5952148437502	263.5690917968751	325.7895507812501	-937.9887695312502	103.7761764526367	1052.219116210938	-1204.964111328125	0.01906350068747998	0.009125590324401857	-0.04633260145783425	0.0119743999093771	0.02577210031449795	-0.01126509997993708	0.009713890030980112	0.02817389927804471	-0.01152830012142658	0.03795740008354188	0.1928070038557053	-0.799234986305237	0.3418999910354615	2.910540103912354	-0.3204059898853303	2.756200075149537	0	0	
1409	7.04	194.5846862792969	248.7344665527344	-2317.39404296875	230.3353424072266	251.579330444336	-94.25424194335939	628.2092285156251	830.3298339843752	-1194.62548828125	614.7667846679689	892.4837036132815	-1118.21044921875	609.6290283203126	887.744079589844	-1274.065673828125	452.5714416503907	1008.248046875	-1192.427734375	260.7725219726563	1056.678833007813	-1201.576416015625	223.040023803711	1064.846923828125	-1203.684448242188	161.9364013671875	1062.41357421875	-1152.080688476563	160.9700317382813	1062.091796875	-1202.028930664063	72.70005798339845	1073.111572265625	-1205.616577148438	14.03625202178955	1060.5244140625	-1152.798706054688	10.94312572479248	1065.75	-1202.58984375	-100.0578384399414	995.3206176757815	-1225.90576171875	-89.60672760009767	998.0233154296877	-1176.006958007813	-148.2813720703125	970.616149902344	-1187.54296875	10.81995391845703	730.1863403320314	-1432.907348632813	-6.727847099304201	652.3666992187501	-1424.540161132813	38.38915252685548	674.8058471679689	-1429.57861328125	91.0458450317383	346.4877014160157	-1431.811889648438	51.96149063110353	278.5505065917969	-1423.678833007813	101.058349609375	285.5082397460938	-1425.364501953125	26.27966308593751	65.15170288085939	-1338.310180664063	236.9244842529297	73.28291320800783	-1341.421020507813	193.8797454833985	56.5545120239258	-1447.008544921875	11.09803199768067	696.9901123046876	-974.3249511718752	82.36311340332033	661.0146484375001	-970.8926391601565	36.72841262817384	640.2034912109376	-973.6949462890627	71.20904541015626	341.3077087402344	-969.5003051757815	114.3216400146485	274.6146850585938	-970.6093750000002	65.24157714843751	281.0299072265626	-979.4027099609377	26.85522460937501	63.14179611206056	-1066.8369140625	237.7333679199219	67.6011199951172	-1054.077026367188	195.2032623291016	67.86557006835939	-955.3687133789065	443.3802185058595	828.2083740234377	-1195.114624023438	286.9417724609376	774.4852294921877	-1176.5224609375	437.3981018066407	877.0496826171877	-1392.123046875	381.3807373046876	751.3366088867189	-1455.259155273438	340.9629821777344	705.0014648437501	-1481.689575195313	376.2756652832032	685.8110351562501	-1449.866577148438	309.3306579589844	475.8167419433595	-1451.35107421875	277.5550537109376	420.2152404785157	-1466.12060546875	301.5077819824219	418.4888916015626	-1422.189453125	263.4046325683594	329.3670654296876	-1441.805297851563	445.9456787109376	861.8032836914065	-1017.853698730469	384.2843627929689	702.4420776367189	-979.497253417969	369.6388244628907	646.7238769531251	-1009.985595703125	363.5073852539063	642.6618652343751	-960.4419555664065	310.7587890625001	456.0667419433595	-960.897644042969	297.4087219238282	401.0314331054689	-992.1811523437502	288.8452758789063	398.4895019531251	-941.6458740234377	263.4353942871094	326.0519714355469	-938.0481567382815	102.6157836914063	1050.548583984375	-1204.643676757813	0.01889310032129288	0.00932362023741007	-0.04695900157094003	0.01253239996731282	0.02534190006554127	-0.01162160001695156	0.009572260081768038	0.02804379910230637	-0.0121253002434969	0.03759369999170304	0.1918949931859971	-0.7992590069770815	0.3423280119895936	2.908109903335572	-0.3204149901866913	2.74266004562378	0	0	
